#!OML:ASF F:\VICON\USERDATA\INSTALL\rory3\rory3.ASF
:FULLY-SPECIFIED
:DEGREES
535
root 0.362951 15.5563 3.34126 11.0388 -31.6456 12.4185
lowerback -1.35392 5.83582 10.0786
upperback 4.11027 7.38693 -0.544774
thorax 6.47582 4.12307 -5.57355
lowerneck 2.71863 -9.28274 -14.4476
upperneck 45.8084 -16.917 8.47664
head 19.6011 -8.49746 4.17735
rclavicle -6.36111e-015 -1.59028e-014
rhumerus -26.9213 20.612 -95.7179
rradius 22.8569
rwrist 15.2241
rhand -30.3723 -62.996
rfingers 7.12502
rthumb -3.67696 92.944
lclavicle -6.36111e-015 -1.59028e-014
lhumerus -41.1821 -75.7684 114.181
lradius 85.7163
lwrist 27.4317
lhand -4.02586 -22.6954
lfingers 7.12502
lthumb 21.7291 6.10499
rfemur -28.0998 -5.81088 -1.09266
rtibia 75.3094
rfoot -10.2867 -12.8904
rtoes -15.7608
lfemur -53.1434 -24.1432 -28.9939
ltibia 58.8758
lfoot -21.6062 -9.34791
ltoes 16.8797
536
root 0.365374 15.5557 3.34792 10.9713 -31.8369 12.392
lowerback -1.45295 5.95142 10.1209
upperback 4.23694 7.52701 -0.620864
thorax 6.71382 4.21063 -5.64007
lowerneck 2.61091 -9.39003 -14.3524
upperneck 45.8425 -17.1434 8.59929
head 19.7147 -8.5562 4.17609
rclavicle 2.14687e-014 -2.8625e-014
rhumerus -26.6907 20.091 -95.584
rradius 22.8062
rwrist 15.8308
rhand -30.1074 -62.9305
rfingers 7.12502
rthumb -3.42113 92.8828
lclavicle 2.14687e-014 -2.8625e-014
lhumerus -40.9891 -76.3738 113.986
lradius 85.7621
lwrist 27.6899
lhand -4.31367 -22.7152
lfingers 7.12502
lthumb 21.4527 6.11698
rfemur -28.0832 -5.65622 -1.13752
rtibia 75.3033
rfoot -10.4436 -12.7458
rtoes -14.5418
lfemur -53.0389 -24.0655 -29.0389
ltibia 58.9018
lfoot -21.6427 -9.23004
ltoes 17.1267
537
root 0.368259 15.5504 3.34218 11.0481 -32.0104 12.2973
lowerback -1.54129 6.02526 10.1744
upperback 4.23123 7.61571 -0.648506
thorax 6.78736 4.26027 -5.67765
lowerneck 2.72961 -9.38932 -14.1862
upperneck 45.8449 -17.1268 8.49373
head 19.6335 -8.53623 4.10569
rclavicle -4.13472e-014 -2.54444e-014
rhumerus -26.6111 19.6159 -95.4527
rradius 22.8321
rwrist 16.6828
rhand -29.7712 -63.0456
rfingers 7.12502
rthumb -3.09654 93.0029
lclavicle -4.13472e-014 -2.54444e-014
lhumerus -41.1995 -76.7051 114.17
lradius 85.8199
lwrist 27.9414
lhand -4.11671 -22.7757
lfingers 7.12502
lthumb 21.6419 6.03485
rfemur -28.2574 -5.48824 -1.07029
rtibia 75.3629
rfoot -10.8186 -12.4931
rtoes -12.7629
lfemur -53.1749 -23.8788 -28.9488
ltibia 58.9782
lfoot -21.6073 -9.30111
ltoes 17.3794
538
root 0.370578 15.5444 3.33727 11.0032 -32.1716 12.3615
lowerback -1.4825 6.03073 10.0104
upperback 4.1969 7.6397 -0.667278
thorax 6.69832 4.26058 -5.61462
lowerneck 2.75703 -9.34592 -13.7819
upperneck 45.7791 -16.9464 8.15292
head 19.4085 -8.42886 3.90081
rclavicle -5.96354e-014 2.54444e-014
rhumerus -26.3904 19.7085 -95.4617
rradius 22.6452
rwrist 17.1012
rhand -29.5042 -63.1146
rfingers 7.12502
rthumb -2.83864 93.0754
lclavicle -5.96354e-014 2.54444e-014
lhumerus -41.2592 -76.922 114.207
lradius 85.837
lwrist 28.0213
lhand -3.95262 -22.8812
lfingers 7.12502
lthumb 21.7995 5.91111
rfemur -28.3231 -5.38795 -1.18737
rtibia 75.4254
rfoot -11.1656 -12.1639
rtoes -11.472
lfemur -53.2499 -23.7455 -29.0266
ltibia 59.0525
lfoot -21.6123 -9.30087
ltoes 17.2666
539
root 0.374723 15.5391 3.33101 10.849 -32.218 12.5577
lowerback -1.33111 5.98475 9.75927
upperback 4.21017 7.60756 -0.714312
thorax 6.58844 4.23174 -5.54808
lowerneck 2.62631 -9.37959 -13.484
upperneck 45.6942 -16.91 7.93093
head 19.2859 -8.38023 3.7368
rclavicle -3.49861e-014 -1.27222e-014
rhumerus -26.0671 20.1876 -95.5741
rradius 22.2476
rwrist 17.1122
rhand -29.1043 -62.8111
rfingers 7.12502
rthumb -2.4524 92.7768
lclavicle -3.49861e-014 -1.27222e-014
lhumerus -40.9654 -77.2986 113.929
lradius 85.8663
lwrist 28.1471
lhand -3.89066 -22.5879
lfingers 7.12502
lthumb 21.859 6.19744
rfemur -28.2961 -5.44958 -1.42029
rtibia 75.4861
rfoot -10.9962 -12.0991
rtoes -11.0301
lfemur -53.2569 -23.7297 -29.2304
ltibia 59.0853
lfoot -21.5599 -9.3724
ltoes 17.4922
540
root 0.380112 15.537 3.32643 10.6933 -32.1947 12.7795
lowerback -1.26565 6.01472 9.61243
upperback 4.24859 7.66537 -0.817256
thorax 6.59605 4.25946 -5.57454
lowerneck 2.46607 -9.50307 -13.1719
upperneck 45.728 -17.0542 7.76622
head 19.3024 -8.39253 3.56864
rclavicle 3.57812e-014 -6.04305e-014
rhumerus -25.5351 20.7009 -95.6656
rradius 21.6695
rwrist 16.5749
rhand -28.9707 -62.5256
rfingers 7.12502
rthumb -2.32346 92.4927
lclavicle 3.57812e-014 -6.04305e-014
lhumerus -40.5477 -77.9982 113.604
lradius 85.8718
lwrist 28.3753
lhand -3.18005 -22.4247
lfingers 7.12502
lthumb 22.5412 6.27947
rfemur -28.2622 -5.59703 -1.67199
rtibia 75.5301
rfoot -10.9874 -11.9407
rtoes -9.86131
lfemur -53.2246 -23.8519 -29.4135
ltibia 59.0667
lfoot -21.5105 -9.32859
ltoes 17.5757
541
root 0.383594 15.5398 3.3291 10.6353 -32.2569 12.7518
lowerback -1.28913 6.16398 9.74031
upperback 4.30273 7.8584 -0.877011
thorax 6.73276 4.36998 -5.67639
lowerneck 2.47282 -9.66256 -13.153
upperneck 45.8008 -17.3687 7.88914
head 19.4389 -8.4998 3.5709
rclavicle 2.78299e-014 -2.54444e-014
rhumerus -26.0076 20.0579 -95.5109
rradius 22.0424
rwrist 16.6355
rhand -29.1238 -62.2762
rfingers 7.12502
rthumb -2.47123 92.2416
lclavicle 2.78299e-014 -2.54444e-014
lhumerus -40.4068 -78.7101 113.621
lradius 85.8145
lwrist 28.4377
lhand -2.37148 -22.5215
lfingers 7.12502
lthumb 23.3171 6.08644
rfemur -28.1986 -5.58494 -1.69124
rtibia 75.5212
rfoot -11.4141 -11.6457
rtoes -8.07436
lfemur -53.1228 -23.9639 -29.3636
ltibia 59.0349
lfoot -21.5106 -9.1293
ltoes 17.429
